<?xml version="1.0" standalone="no"?>
<!DOCTYPE svg PUBLIC "-//W3C//DTD SVG 20010904//EN"
 "http://www.w3.org/TR/2001/REC-SVG-20010904/DTD/svg10.dtd">
<svg version="1.0" xmlns="http://www.w3.org/2000/svg"
 width="512.000000pt" height="512.000000pt" viewBox="0 0 512.000000 512.000000"
 preserveAspectRatio="xMidYMid meet">

<g transform="translate(0.000000,512.000000) scale(0.100000,-0.100000)"
fill="#FFFFFF" stroke="none">
<path d="M740 4248 c-102 -29 -158 -131 -129 -236 11 -40 33 -68 151 -188
l138 -140 -103 -81 c-241 -189 -448 -402 -629 -647 -126 -171 -168 -269 -168
-396 0 -130 42 -228 178 -408 527 -706 1277 -1151 2087 -1242 145 -16 487 -14
626 5 202 26 480 92 595 140 l31 13 204 -205 c202 -202 254 -245 316 -258 70
-14 170 42 199 112 18 43 18 117 -1 157 -8 17 -765 781 -1682 1697 -1590 1588
-1670 1667 -1715 1678 -53 13 -51 13 -98 -1z m959 -1474 c-31 -121 -31 -312 0
-429 83 -314 331 -562 647 -646 116 -31 307 -31 428 0 l89 23 173 -173 c96
-96 174 -176 174 -180 0 -10 -222 -58 -345 -74 -172 -23 -473 -21 -640 4 -643
96 -1246 453 -1677 994 -104 131 -157 210 -164 246 -9 45 8 81 87 188 176 239
383 446 614 616 l90 67 274 -274 273 -273 -23 -89z m595 -483 l238 -238 -58 9
c-198 30 -382 213 -412 411 -5 31 -8 57 -8 57 1 0 108 -107 240 -239z"/>
<path d="M2400 4219 c-225 -12 -458 -55 -679 -125 l-113 -37 150 -150 151
-151 113 27 c267 62 604 77 873 38 684 -101 1314 -495 1758 -1100 80 -109 96
-150 78 -201 -14 -41 -158 -232 -264 -351 -133 -149 -266 -270 -429 -391 l-86
-65 137 -137 137 -137 114 92 c242 194 420 377 602 621 136 180 178 278 178
408 0 132 -42 228 -184 417 -444 592 -1043 998 -1731 1172 -121 30 -314 60
-433 66 -59 3 -134 7 -167 9 -33 2 -125 0 -205 -5z"/>
<path d="M2442 3440 c-35 -5 -88 -16 -119 -25 l-56 -17 167 -167 c166 -166
169 -169 219 -174 28 -4 84 -22 125 -42 138 -66 246 -202 277 -353 l14 -66
165 -165 164 -164 16 54 c86 290 0 628 -218 857 -100 106 -271 204 -418 241
-92 24 -248 33 -336 21z"/>
</g>
</svg>
